# xmcd
#
# Track frame offsets:
#	150
#	11484
#	32685
#	45010
#	64662
#	77044
#	100556
#	108664
#	129410
#	146181
#	158321
#	176914
#
# Disc length: 2568 seconds
#
# Revision: 0
# Processed by: cddbd v1.5.2PL0 Copyright (c) Steve Scherf et al.
# Submitted via: EasyCDDAExtractor 10.0.2.1
#
DISCID=8c0a060c
DTITLE=Faith Harmony Boys - Heading In The Right Direction
DYEAR=2006
DGENRE=Gospel
TTITLE0=Go Tell The News
TTITLE1=Sing Me A Song About Jesus
TTITLE2=Ready Or Not
TTITLE3=Behold The Lamb
TTITLE4=Headed In The Right Direction
TTITLE5=The Guilty Go Free
TTITLE6=He Made A Way
TTITLE7=Jesus, I Know That You're Real
TTITLE8=My Father Can Fix Anything
TTITLE9=Nobody Knows
TTITLE10=The Lighthouse
TTITLE11=This Day
EXTD=
EXTT0=
EXTT1=
EXTT2=
EXTT3=
EXTT4=
EXTT5=
EXTT6=
EXTT7=
EXTT8=
EXTT9=
EXTT10=
EXTT11=
PLAYORDER=
